<svg xmlns="http://www.w3.org/2000/svg" xmlns:xlink="http://www.w3.org/1999/xlink" width="500" zoomAndPan="magnify" viewBox="0 0 375 374.999991" height="500" preserveAspectRatio="xMidYMid meet" version="1.0"><defs><g/><clipPath id="35817e7671"><path d="M 136 34 L 238 34 L 238 239.316406 L 136 239.316406 Z M 136 34 " clip-rule="nonzero"/></clipPath><clipPath id="6bc34ea464"><path d="M 8.289062 20.316406 L 110 20.316406 L 110 239.316406 L 8.289062 239.316406 Z M 8.289062 20.316406 " clip-rule="nonzero"/></clipPath><clipPath id="9965130860"><path d="M 265 109 L 366.789062 109 L 366.789062 239.316406 L 265 239.316406 Z M 265 109 " clip-rule="nonzero"/></clipPath><clipPath id="a592fd6877"><path d="M 8.289062 15.691406 L 110 15.691406 L 110 233.171875 L 8.289062 233.171875 Z M 8.289062 15.691406 " clip-rule="nonzero"/></clipPath></defs><g clip-path="url(#35817e7671)"><path fill="#00be9c" d="M 231.324219 239.382812 L 143.328125 239.382812 C 139.757812 239.382812 136.816406 236.445312 136.816406 233.085938 L 136.816406 40.558594 C 136.816406 37.199219 139.757812 34.257812 143.328125 34.257812 L 231.324219 34.257812 C 234.894531 34.257812 237.835938 37.199219 237.835938 40.558594 L 237.835938 233.292969 C 237.835938 236.445312 234.894531 239.382812 231.324219 239.382812 Z M 231.324219 239.382812 " fill-opacity="1" fill-rule="evenodd"/></g><g clip-path="url(#6bc34ea464)"><path fill="#ff0000" d="M 102.796875 239.382812 L 14.796875 239.382812 C 11.226562 239.382812 8.289062 236.445312 8.289062 233.085938 L 8.289062 -55.601562 C 8.289062 -59.171875 11.226562 -62.109375 14.796875 -62.109375 L 102.796875 -62.109375 C 106.367188 -62.109375 109.097656 -59.171875 109.097656 -55.601562 L 109.097656 233.085938 C 108.886719 236.445312 106.367188 239.382812 102.796875 239.382812 Z M 102.796875 239.382812 " fill-opacity="1" fill-rule="evenodd"/></g><g clip-path="url(#9965130860)"><path fill="#354a5f" d="M 360.277344 239.382812 L 272.28125 239.382812 C 268.710938 239.382812 265.769531 236.445312 265.769531 233.085938 L 265.769531 115.722656 C 265.769531 112.363281 268.710938 109.421875 272.28125 109.421875 L 360.277344 109.421875 C 363.847656 109.421875 366.789062 112.363281 366.789062 115.722656 L 366.789062 233.292969 C 366.789062 236.445312 363.847656 239.382812 360.277344 239.382812 Z M 360.277344 239.382812 " fill-opacity="1" fill-rule="evenodd"/></g><g clip-path="url(#a592fd6877)"><path fill="#ff0000" d="M 102.796875 15.691406 L 14.796875 15.691406 C 11.226562 15.691406 8.289062 18.632812 8.289062 21.992188 L 8.289062 310.675781 C 8.289062 314.246094 11.226562 317.1875 14.796875 317.1875 L 102.796875 317.1875 C 106.367188 317.1875 109.097656 314.246094 109.097656 310.675781 L 109.097656 21.992188 C 108.886719 18.632812 106.367188 15.691406 102.796875 15.691406 Z M 102.796875 15.691406 " fill-opacity="1" fill-rule="evenodd"/></g><g fill="#00868b" fill-opacity="0.9882"><g transform="translate(20.047452, 183.515722)"><g><path d="M 44.183594 -37.082031 L 30.058594 -37.082031 C 30.058594 -37.082031 28.402344 -37.082031 27.296875 -35.898438 C 26.351562 -34.949219 26.035156 -33.765625 26.035156 -33.058594 L 26.035156 -29.980469 C 26.035156 -27.851562 28.007812 -26.273438 30.136719 -26.273438 L 32.191406 -26.273438 L 32.191406 -23.746094 C 32.191406 -20.433594 29.507812 -18.226562 26.195312 -18.226562 C 22.957031 -18.226562 20.277344 -20.90625 20.277344 -24.140625 L 20.277344 -39.054688 C 20.277344 -41.816406 22.5625 -44.96875 26.195312 -44.96875 C 28.324219 -44.96875 30.21875 -43.789062 31.085938 -42.367188 C 31.636719 -41.578125 32.109375 -41.5 32.664062 -41.5 L 46.546875 -41.5 C 46.941406 -41.5 48.207031 -41.578125 49.230469 -42.605469 C 50.414062 -43.707031 50.414062 -44.890625 50.414062 -45.363281 L 50.414062 -46.3125 C 50.414062 -47.417969 48.601562 -53.097656 44.8125 -57.042969 C 41.183594 -60.828125 35.820312 -64.0625 27.769531 -64.0625 L 23.589844 -64.0625 C 16.804688 -64.0625 10.257812 -60.671875 6.46875 -56.09375 C 3.078125 -51.914062 1.339844 -46.785156 1.339844 -42.128906 L 1.339844 -21.066406 C 1.339844 -15.304688 3.628906 -10.257812 6.390625 -7.023438 C 12.148438 -0.238281 19.410156 1.027344 22.644531 1.027344 L 28.796875 1.027344 C 35.503906 1.027344 41.734375 -2.289062 44.96875 -5.996094 C 48.519531 -10.019531 50.886719 -14.910156 50.886719 -21.066406 L 50.886719 -28.164062 C 50.886719 -33.6875 47.890625 -37.082031 44.183594 -37.082031 Z M 44.183594 -37.082031 "/></g></g></g><g fill="#00868b" fill-opacity="0.9882"><g transform="translate(72.272426, 183.515722)"><g><path d="M 24.617188 -45.996094 L 40.632812 -45.996094 C 42.917969 -45.996094 44.8125 -47.890625 44.8125 -50.097656 L 44.8125 -58.933594 C 44.8125 -61.222656 42.917969 -63.039062 40.632812 -63.039062 L 8.363281 -63.039062 C 5.128906 -63.039062 2.605469 -60.511719 2.605469 -58.699219 L 2.605469 -7.335938 C 2.605469 -2.683594 5.128906 -0.15625 8.363281 -0.15625 L 40.632812 -0.15625 C 42.917969 -0.15625 44.8125 -1.972656 44.8125 -4.261719 L 44.8125 -13.097656 C 44.8125 -15.382812 42.917969 -17.355469 40.632812 -17.355469 L 24.617188 -17.355469 C 24.300781 -17.355469 24.0625 -17.59375 24.0625 -17.910156 L 24.0625 -22.957031 C 24.0625 -23.273438 24.300781 -23.511719 24.617188 -23.511719 L 36.214844 -23.511719 C 38.265625 -23.511719 40 -25.167969 40 -27.296875 L 40 -35.898438 C 40 -37.949219 38.265625 -39.683594 36.214844 -39.683594 L 24.617188 -39.683594 C 24.300781 -39.683594 24.0625 -39.921875 24.0625 -40.15625 L 24.0625 -45.363281 C 24.0625 -45.601562 24.300781 -45.996094 24.617188 -45.996094 Z M 24.617188 -45.996094 "/></g></g></g><g fill="#00868b" fill-opacity="0.9882"><g transform="translate(119.685129, 183.515722)"><g><path d="M 48.679688 -63.039062 L 38.738281 -63.039062 C 35.660156 -63.039062 32.976562 -60.511719 32.976562 -57.355469 L 32.976562 -38.816406 L 23.746094 -59.328125 C 22.878906 -61.539062 20.75 -63.039062 18.304688 -63.039062 L 8.363281 -63.039062 C 5.207031 -63.039062 2.605469 -60.511719 2.605469 -57.355469 L 2.605469 -4.65625 C 2.605469 -1.5 5.207031 1.027344 8.363281 1.027344 L 18.304688 1.027344 C 21.539062 1.027344 24.0625 -1.5 24.0625 -4.65625 L 24.0625 -22.40625 L 33.292969 -2.839844 C 34.242188 -0.632812 36.214844 1.027344 38.738281 1.027344 L 48.679688 1.027344 C 51.914062 1.027344 54.4375 -1.5 54.4375 -4.65625 L 54.4375 -57.355469 C 54.4375 -60.511719 51.914062 -63.039062 48.679688 -63.039062 Z M 48.679688 -63.039062 "/></g></g></g><g fill="#00868b" fill-opacity="0.9882"><g transform="translate(176.722374, 183.515722)"><g><path d="M 24.617188 -45.996094 L 40.632812 -45.996094 C 42.917969 -45.996094 44.8125 -47.890625 44.8125 -50.097656 L 44.8125 -58.933594 C 44.8125 -61.222656 42.917969 -63.039062 40.632812 -63.039062 L 8.363281 -63.039062 C 5.128906 -63.039062 2.605469 -60.511719 2.605469 -58.699219 L 2.605469 -7.335938 C 2.605469 -2.683594 5.128906 -0.15625 8.363281 -0.15625 L 40.632812 -0.15625 C 42.917969 -0.15625 44.8125 -1.972656 44.8125 -4.261719 L 44.8125 -13.097656 C 44.8125 -15.382812 42.917969 -17.355469 40.632812 -17.355469 L 24.617188 -17.355469 C 24.300781 -17.355469 24.0625 -17.59375 24.0625 -17.910156 L 24.0625 -22.957031 C 24.0625 -23.273438 24.300781 -23.511719 24.617188 -23.511719 L 36.214844 -23.511719 C 38.265625 -23.511719 40 -25.167969 40 -27.296875 L 40 -35.898438 C 40 -37.949219 38.265625 -39.683594 36.214844 -39.683594 L 24.617188 -39.683594 C 24.300781 -39.683594 24.0625 -39.921875 24.0625 -40.15625 L 24.0625 -45.363281 C 24.0625 -45.601562 24.300781 -45.996094 24.617188 -45.996094 Z M 24.617188 -45.996094 "/></g></g></g><g fill="#00868b" fill-opacity="0.9882"><g transform="translate(224.13507, 183.515722)"><g><path d="M 51.675781 -6.707031 L 46.785156 -25.878906 C 46.628906 -26.507812 46.46875 -26.980469 46.234375 -27.375 C 49.703125 -31.480469 51.914062 -36.527344 51.914062 -43.394531 C 51.914062 -55.464844 44.96875 -63.039062 36.371094 -63.039062 L 7.890625 -62.957031 C 4.8125 -62.957031 2.367188 -60.433594 2.367188 -55.9375 L 2.367188 -5.679688 C 2.367188 -2.761719 4.8125 -0.238281 7.890625 -0.238281 L 17.988281 -0.238281 C 19.566406 -0.238281 21.144531 -0.867188 22.167969 -2.128906 C 23.589844 -3.707031 23.511719 -4.574219 23.511719 -5.839844 L 23.511719 -19.015625 C 23.511719 -19.171875 23.589844 -19.488281 23.90625 -19.488281 C 24.222656 -19.488281 24.378906 -19.25 24.378906 -19.09375 L 25.011719 -15.859375 L 27.0625 -6.234375 C 27.851562 -2.683594 31.320312 -0.238281 34.003906 -0.238281 L 46.785156 -0.238281 C 49.863281 -0.238281 52.464844 -2.996094 51.675781 -6.707031 Z M 30.691406 -41.339844 L 30.691406 -40.238281 C 30.691406 -37.710938 28.558594 -35.582031 26.035156 -35.582031 L 24.535156 -35.582031 C 23.90625 -35.582031 23.511719 -36.054688 23.511719 -36.609375 L 23.511719 -45.050781 C 23.511719 -45.601562 23.90625 -46.074219 24.535156 -46.074219 L 26.035156 -46.074219 C 28.558594 -46.074219 30.691406 -43.945312 30.691406 -41.339844 Z M 30.691406 -41.339844 "/></g></g></g><g fill="#00868b" fill-opacity="0.9882"><g transform="translate(278.647845, 183.515722)"><g><path d="M 8.207031 0.078125 L 17.988281 0.078125 C 21.300781 0.078125 23.667969 -2.605469 23.667969 -5.601562 L 23.667969 -57.4375 C 23.667969 -60.75 21.300781 -63.117188 17.988281 -63.117188 L 8.207031 -63.117188 C 5.128906 -63.117188 2.605469 -60.75 2.605469 -57.4375 L 2.605469 -5.601562 C 2.605469 -2.605469 5.128906 0.078125 8.207031 0.078125 Z M 8.207031 0.078125 "/></g></g></g><g fill="#00868b" fill-opacity="0.9882"><g transform="translate(304.918107, 183.515722)"><g><path d="M 33.453125 -25.011719 C 32.742188 -25.011719 32.191406 -24.457031 32.191406 -23.746094 C 32.191406 -21.066406 29.742188 -18.699219 26.980469 -18.699219 C 24.0625 -18.699219 21.773438 -21.066406 21.773438 -23.746094 L 21.773438 -39.367188 C 21.773438 -43.15625 25.800781 -46.152344 30.058594 -43.707031 C 31.242188 -43 32.191406 -41.261719 32.191406 -39.84375 L 32.191406 -39.449219 C 32.191406 -38.816406 32.742188 -38.1875 33.453125 -38.1875 L 51.441406 -38.1875 C 51.992188 -38.1875 52.542969 -38.738281 52.542969 -39.367188 L 52.542969 -40.789062 C 52.542969 -53.726562 40.15625 -64.140625 26.980469 -64.140625 C 14.042969 -64.140625 1.339844 -53.726562 1.339844 -40.789062 L 1.339844 -22.957031 C 1.339844 -9.546875 14.042969 0.945312 26.980469 0.945312 C 40.15625 0.945312 52.542969 -9.546875 52.542969 -22.957031 L 52.542969 -23.90625 C 52.542969 -24.457031 51.992188 -25.011719 51.441406 -25.011719 Z M 33.453125 -25.011719 "/></g></g></g><g fill="#b2edef" fill-opacity="1"><g transform="translate(18.120691, 178.976559)"><g><path d="M 44.183594 -37.082031 L 30.058594 -37.082031 C 30.058594 -37.082031 28.402344 -37.082031 27.296875 -35.898438 C 26.351562 -34.949219 26.035156 -33.765625 26.035156 -33.058594 L 26.035156 -29.980469 C 26.035156 -27.851562 28.007812 -26.273438 30.136719 -26.273438 L 32.191406 -26.273438 L 32.191406 -23.746094 C 32.191406 -20.433594 29.507812 -18.226562 26.195312 -18.226562 C 22.957031 -18.226562 20.277344 -20.90625 20.277344 -24.140625 L 20.277344 -39.054688 C 20.277344 -41.816406 22.5625 -44.96875 26.195312 -44.96875 C 28.324219 -44.96875 30.21875 -43.789062 31.085938 -42.367188 C 31.636719 -41.578125 32.109375 -41.5 32.664062 -41.5 L 46.546875 -41.5 C 46.941406 -41.5 48.207031 -41.578125 49.230469 -42.605469 C 50.414062 -43.707031 50.414062 -44.890625 50.414062 -45.363281 L 50.414062 -46.3125 C 50.414062 -47.417969 48.601562 -53.097656 44.8125 -57.042969 C 41.183594 -60.828125 35.820312 -64.0625 27.769531 -64.0625 L 23.589844 -64.0625 C 16.804688 -64.0625 10.257812 -60.671875 6.46875 -56.09375 C 3.078125 -51.914062 1.339844 -46.785156 1.339844 -42.128906 L 1.339844 -21.066406 C 1.339844 -15.304688 3.628906 -10.257812 6.390625 -7.023438 C 12.148438 -0.238281 19.410156 1.027344 22.644531 1.027344 L 28.796875 1.027344 C 35.503906 1.027344 41.734375 -2.289062 44.96875 -5.996094 C 48.519531 -10.019531 50.886719 -14.910156 50.886719 -21.066406 L 50.886719 -28.164062 C 50.886719 -33.6875 47.890625 -37.082031 44.183594 -37.082031 Z M 44.183594 -37.082031 "/></g></g></g><g fill="#b2edef" fill-opacity="1"><g transform="translate(70.345665, 178.976559)"><g><path d="M 24.617188 -45.996094 L 40.632812 -45.996094 C 42.917969 -45.996094 44.8125 -47.890625 44.8125 -50.097656 L 44.8125 -58.933594 C 44.8125 -61.222656 42.917969 -63.039062 40.632812 -63.039062 L 8.363281 -63.039062 C 5.128906 -63.039062 2.605469 -60.511719 2.605469 -58.699219 L 2.605469 -7.335938 C 2.605469 -2.683594 5.128906 -0.15625 8.363281 -0.15625 L 40.632812 -0.15625 C 42.917969 -0.15625 44.8125 -1.972656 44.8125 -4.261719 L 44.8125 -13.097656 C 44.8125 -15.382812 42.917969 -17.355469 40.632812 -17.355469 L 24.617188 -17.355469 C 24.300781 -17.355469 24.0625 -17.59375 24.0625 -17.910156 L 24.0625 -22.957031 C 24.0625 -23.273438 24.300781 -23.511719 24.617188 -23.511719 L 36.214844 -23.511719 C 38.265625 -23.511719 40 -25.167969 40 -27.296875 L 40 -35.898438 C 40 -37.949219 38.265625 -39.683594 36.214844 -39.683594 L 24.617188 -39.683594 C 24.300781 -39.683594 24.0625 -39.921875 24.0625 -40.15625 L 24.0625 -45.363281 C 24.0625 -45.601562 24.300781 -45.996094 24.617188 -45.996094 Z M 24.617188 -45.996094 "/></g></g></g><g fill="#b2edef" fill-opacity="1"><g transform="translate(117.758368, 178.976559)"><g><path d="M 48.679688 -63.039062 L 38.738281 -63.039062 C 35.660156 -63.039062 32.976562 -60.511719 32.976562 -57.355469 L 32.976562 -38.816406 L 23.746094 -59.328125 C 22.878906 -61.539062 20.75 -63.039062 18.304688 -63.039062 L 8.363281 -63.039062 C 5.207031 -63.039062 2.605469 -60.511719 2.605469 -57.355469 L 2.605469 -4.65625 C 2.605469 -1.5 5.207031 1.027344 8.363281 1.027344 L 18.304688 1.027344 C 21.539062 1.027344 24.0625 -1.5 24.0625 -4.65625 L 24.0625 -22.40625 L 33.292969 -2.839844 C 34.242188 -0.632812 36.214844 1.027344 38.738281 1.027344 L 48.679688 1.027344 C 51.914062 1.027344 54.4375 -1.5 54.4375 -4.65625 L 54.4375 -57.355469 C 54.4375 -60.511719 51.914062 -63.039062 48.679688 -63.039062 Z M 48.679688 -63.039062 "/></g></g></g><g fill="#b2edef" fill-opacity="1"><g transform="translate(174.795613, 178.976559)"><g><path d="M 24.617188 -45.996094 L 40.632812 -45.996094 C 42.917969 -45.996094 44.8125 -47.890625 44.8125 -50.097656 L 44.8125 -58.933594 C 44.8125 -61.222656 42.917969 -63.039062 40.632812 -63.039062 L 8.363281 -63.039062 C 5.128906 -63.039062 2.605469 -60.511719 2.605469 -58.699219 L 2.605469 -7.335938 C 2.605469 -2.683594 5.128906 -0.15625 8.363281 -0.15625 L 40.632812 -0.15625 C 42.917969 -0.15625 44.8125 -1.972656 44.8125 -4.261719 L 44.8125 -13.097656 C 44.8125 -15.382812 42.917969 -17.355469 40.632812 -17.355469 L 24.617188 -17.355469 C 24.300781 -17.355469 24.0625 -17.59375 24.0625 -17.910156 L 24.0625 -22.957031 C 24.0625 -23.273438 24.300781 -23.511719 24.617188 -23.511719 L 36.214844 -23.511719 C 38.265625 -23.511719 40 -25.167969 40 -27.296875 L 40 -35.898438 C 40 -37.949219 38.265625 -39.683594 36.214844 -39.683594 L 24.617188 -39.683594 C 24.300781 -39.683594 24.0625 -39.921875 24.0625 -40.15625 L 24.0625 -45.363281 C 24.0625 -45.601562 24.300781 -45.996094 24.617188 -45.996094 Z M 24.617188 -45.996094 "/></g></g></g><g fill="#b2edef" fill-opacity="1"><g transform="translate(222.20831, 178.976559)"><g><path d="M 51.675781 -6.707031 L 46.785156 -25.878906 C 46.628906 -26.507812 46.46875 -26.980469 46.234375 -27.375 C 49.703125 -31.480469 51.914062 -36.527344 51.914062 -43.394531 C 51.914062 -55.464844 44.96875 -63.039062 36.371094 -63.039062 L 7.890625 -62.957031 C 4.8125 -62.957031 2.367188 -60.433594 2.367188 -55.9375 L 2.367188 -5.679688 C 2.367188 -2.761719 4.8125 -0.238281 7.890625 -0.238281 L 17.988281 -0.238281 C 19.566406 -0.238281 21.144531 -0.867188 22.167969 -2.128906 C 23.589844 -3.707031 23.511719 -4.574219 23.511719 -5.839844 L 23.511719 -19.015625 C 23.511719 -19.171875 23.589844 -19.488281 23.90625 -19.488281 C 24.222656 -19.488281 24.378906 -19.25 24.378906 -19.09375 L 25.011719 -15.859375 L 27.0625 -6.234375 C 27.851562 -2.683594 31.320312 -0.238281 34.003906 -0.238281 L 46.785156 -0.238281 C 49.863281 -0.238281 52.464844 -2.996094 51.675781 -6.707031 Z M 30.691406 -41.339844 L 30.691406 -40.238281 C 30.691406 -37.710938 28.558594 -35.582031 26.035156 -35.582031 L 24.535156 -35.582031 C 23.90625 -35.582031 23.511719 -36.054688 23.511719 -36.609375 L 23.511719 -45.050781 C 23.511719 -45.601562 23.90625 -46.074219 24.535156 -46.074219 L 26.035156 -46.074219 C 28.558594 -46.074219 30.691406 -43.945312 30.691406 -41.339844 Z M 30.691406 -41.339844 "/></g></g></g><g fill="#b2edef" fill-opacity="1"><g transform="translate(276.721085, 178.976559)"><g><path d="M 8.207031 0.078125 L 17.988281 0.078125 C 21.300781 0.078125 23.667969 -2.605469 23.667969 -5.601562 L 23.667969 -57.4375 C 23.667969 -60.75 21.300781 -63.117188 17.988281 -63.117188 L 8.207031 -63.117188 C 5.128906 -63.117188 2.605469 -60.75 2.605469 -57.4375 L 2.605469 -5.601562 C 2.605469 -2.605469 5.128906 0.078125 8.207031 0.078125 Z M 8.207031 0.078125 "/></g></g></g><g fill="#b2edef" fill-opacity="1"><g transform="translate(302.991346, 178.976559)"><g><path d="M 33.453125 -25.011719 C 32.742188 -25.011719 32.191406 -24.457031 32.191406 -23.746094 C 32.191406 -21.066406 29.742188 -18.699219 26.980469 -18.699219 C 24.0625 -18.699219 21.773438 -21.066406 21.773438 -23.746094 L 21.773438 -39.367188 C 21.773438 -43.15625 25.800781 -46.152344 30.058594 -43.707031 C 31.242188 -43 32.191406 -41.261719 32.191406 -39.84375 L 32.191406 -39.449219 C 32.191406 -38.816406 32.742188 -38.1875 33.453125 -38.1875 L 51.441406 -38.1875 C 51.992188 -38.1875 52.542969 -38.738281 52.542969 -39.367188 L 52.542969 -40.789062 C 52.542969 -53.726562 40.15625 -64.140625 26.980469 -64.140625 C 14.042969 -64.140625 1.339844 -53.726562 1.339844 -40.789062 L 1.339844 -22.957031 C 1.339844 -9.546875 14.042969 0.945312 26.980469 0.945312 C 40.15625 0.945312 52.542969 -9.546875 52.542969 -22.957031 L 52.542969 -23.90625 C 52.542969 -24.457031 51.992188 -25.011719 51.441406 -25.011719 Z M 33.453125 -25.011719 "/></g></g></g><g fill="#ffa7e4" fill-opacity="1"><g transform="translate(88.633307, 231.167591)"><g><path d="M 45.445312 -52.058594 C 43.753906 -57.597656 38.679688 -61.363281 32.914062 -61.363281 L 8.535156 -61.363281 C 5.230469 -61.363281 2.539062 -58.597656 2.539062 -55.289062 L 2.539062 -6.230469 C 2.539062 -2.84375 5.230469 -0.152344 8.535156 -0.152344 L 16.53125 -0.152344 C 19.839844 -0.152344 22.53125 -2.84375 22.53125 -6.230469 L 22.53125 -20.300781 L 33.21875 -20.300781 C 36.449219 -20.300781 39.523438 -21.683594 41.601562 -24.144531 C 44.140625 -27.222656 46.753906 -32.527344 46.753906 -41.371094 C 46.753906 -45.832031 46.214844 -49.445312 45.445312 -52.058594 Z M 29.527344 -41.523438 L 29.527344 -40.449219 C 29.527344 -37.832031 27.53125 -35.835938 24.992188 -35.835938 L 23.53125 -35.835938 C 22.914062 -35.835938 22.53125 -36.21875 22.53125 -36.757812 L 22.53125 -45.0625 C 22.53125 -45.601562 22.914062 -46.136719 23.53125 -46.136719 L 24.992188 -46.136719 C 27.53125 -46.136719 29.527344 -43.984375 29.527344 -41.523438 Z M 29.527344 -41.523438 "/></g></g></g><g fill="#ffa7e4" fill-opacity="1"><g transform="translate(136.687537, 231.167591)"><g><path d="M 26.375 -62.441406 C 13.765625 -62.441406 1.308594 -52.289062 1.308594 -39.601562 L 1.308594 -22.070312 C 1.308594 -8.921875 13.765625 1.308594 26.375 1.308594 C 39.292969 1.308594 51.445312 -8.921875 51.445312 -22.070312 L 51.445312 -39.601562 C 51.445312 -52.289062 39.292969 -62.441406 26.375 -62.441406 Z M 31.527344 -22.839844 C 31.527344 -20.222656 29.144531 -17.917969 26.375 -17.917969 C 23.53125 -17.917969 21.300781 -20.222656 21.300781 -22.839844 L 21.300781 -38.21875 C 21.300781 -40.988281 23.53125 -43.292969 26.375 -43.292969 C 29.144531 -43.292969 31.527344 -40.988281 31.527344 -38.21875 Z M 31.527344 -22.839844 "/></g></g></g><g fill="#ffa7e4" fill-opacity="1"><g transform="translate(189.431865, 231.167591)"><g><path d="M 38.140625 -20.761719 L 23.144531 -20.761719 L 23.144531 -55.289062 C 23.144531 -58.597656 20.222656 -61.519531 17.070312 -61.519531 L 8.152344 -61.519531 C 4.84375 -61.519531 2.539062 -58.597656 2.539062 -55.289062 L 2.539062 -5.074219 C 2.539062 -2.308594 4.304688 0 7.613281 0 L 38.140625 0 C 40.988281 0 43.292969 -2.308594 43.292969 -5.074219 L 43.292969 -15.378906 C 43.292969 -18.226562 40.988281 -20.761719 38.140625 -20.761719 Z M 38.140625 -20.761719 "/></g></g></g><g fill="#ffa7e4" fill-opacity="1"><g transform="translate(235.256374, 231.167591)"><g><path d="M 38.140625 -20.761719 L 23.144531 -20.761719 L 23.144531 -55.289062 C 23.144531 -58.597656 20.222656 -61.519531 17.070312 -61.519531 L 8.152344 -61.519531 C 4.84375 -61.519531 2.539062 -58.597656 2.539062 -55.289062 L 2.539062 -5.074219 C 2.539062 -2.308594 4.304688 0 7.613281 0 L 38.140625 0 C 40.988281 0 43.292969 -2.308594 43.292969 -5.074219 L 43.292969 -15.378906 C 43.292969 -18.226562 40.988281 -20.761719 38.140625 -20.761719 Z M 38.140625 -20.761719 "/></g></g></g><path stroke-linecap="butt" transform="matrix(0.75, 0, 0, 0.75, 37.500002, 168.496585)" fill="none" stroke-linejoin="miter" d="M 132.307298 11.587888 C 130.052089 4.20247 123.270839 -0.82878 115.583338 -0.82878 L 83.093753 -0.82878 C 78.687502 -0.82878 75.083336 2.874345 75.083336 7.280596 L 75.083336 72.692058 C 75.083336 77.197267 78.687502 80.801434 83.093753 80.801434 L 93.755212 80.801434 C 98.161462 80.801434 101.739587 77.197267 101.739587 72.692058 L 101.739587 53.942057 L 115.98438 53.942057 C 120.312505 53.942057 124.395839 52.08789 127.171881 48.80664 C 130.552089 44.702473 134.031256 37.619139 134.031256 25.827472 C 134.031256 19.89518 133.333339 15.067054 132.307298 11.587888 Z M 111.07813 25.629555 L 111.07813 27.08268 C 111.07813 30.561847 108.401046 33.212889 105.020838 33.212889 L 103.067712 33.212889 C 102.265629 33.212889 101.739587 32.712889 101.739587 31.988931 L 101.739587 20.92643 C 101.739587 20.197263 102.265629 19.473305 103.067712 19.473305 L 105.020838 19.473305 C 108.401046 19.473305 111.07813 22.348305 111.07813 25.629555 Z M 170.942717 -2.255863 C 154.125007 -2.255863 137.526048 11.285804 137.526048 28.20768 L 137.526048 51.561848 C 137.526048 69.108725 154.125007 82.754559 170.942717 82.754559 C 188.166676 82.754559 204.364594 69.108725 204.364594 51.561848 L 204.364594 28.20768 C 204.364594 11.285804 188.166676 -2.255863 170.942717 -2.255863 Z M 177.802092 50.535807 C 177.802092 54.041015 174.625009 57.119141 170.942717 57.119141 C 167.140633 57.119141 164.187508 54.041015 164.187508 50.535807 L 164.187508 30.035805 C 164.187508 26.353513 167.140633 23.275388 170.942717 23.275388 C 174.625009 23.275388 177.802092 26.353513 177.802092 30.035805 Z M 256.963556 53.317057 L 236.963555 53.317057 L 236.963555 7.280596 C 236.963555 2.874345 233.062513 -1.026697 228.854179 -1.026697 L 216.963553 -1.026697 C 212.557303 -1.026697 209.479178 2.874345 209.479178 7.280596 L 209.479178 74.238933 C 209.479178 77.921225 211.833345 80.99935 216.265636 80.99935 L 256.963556 80.99935 C 260.744806 80.99935 263.822931 77.921225 263.822931 74.238933 L 263.822931 60.499349 C 263.822931 56.692057 260.744806 53.317057 256.963556 53.317057 Z M 318.062518 53.317057 L 298.062517 53.317057 L 298.062517 7.280596 C 298.062517 2.874345 294.161475 -1.026697 289.953141 -1.026697 L 278.062516 -1.026697 C 273.656265 -1.026697 270.57814 2.874345 270.57814 7.280596 L 270.57814 74.238933 C 270.57814 77.921225 272.932307 80.99935 277.364599 80.99935 L 318.062518 80.99935 C 321.843768 80.99935 324.921894 77.921225 324.921894 74.238933 L 324.921894 60.499349 C 324.921894 56.692057 321.843768 53.317057 318.062518 53.317057 Z M 318.062518 53.317057 " stroke="#ff66c4" stroke-width="1.666145" stroke-opacity="1" stroke-miterlimit="4"/><g fill="#ff914d" fill-opacity="1"><g transform="translate(247.503254, 228.325184)"><g><path d="M 11.878906 -5.511719 C 14.351562 -6.59375 16.300781 -8.09375 17.730469 -10.015625 C 19.113281 -11.914062 20.167969 -14.050781 20.828125 -16.441406 C 21.488281 -18.835938 21.816406 -21.351562 21.90625 -24.035156 C 21.992188 -26.714844 21.90625 -29.421875 21.75 -32.15625 C 21.566406 -34.824219 21.34375 -37.46875 21.113281 -40.003906 C 20.882812 -42.539062 20.738281 -44.894531 20.761719 -46.996094 C 20.789062 -49.09375 21.023438 -50.855469 21.433594 -52.363281 C 21.859375 -53.824219 22.65625 -54.847656 23.878906 -55.410156 C 24.5625 -55.726562 25.1875 -55.683594 25.734375 -55.328125 C 26.257812 -54.910156 26.664062 -54.378906 26.953125 -53.632812 C 27.195312 -52.863281 27.28125 -52.078125 27.160156 -51.144531 C 27.042969 -50.207031 26.722656 -49.347656 26.203125 -48.558594 C 27.175781 -48.839844 28.015625 -49.28125 28.710938 -49.929688 C 29.402344 -50.578125 30.007812 -51.296875 30.390625 -52.132812 C 30.796875 -52.925781 31.074219 -53.765625 31.191406 -54.699219 C 31.269531 -55.613281 31.207031 -56.46875 30.941406 -57.28125 C 30.679688 -58.09375 30.1875 -58.804688 29.539062 -59.496094 C 28.867188 -60.121094 27.988281 -60.597656 26.859375 -60.90625 C 25.835938 -61.09375 24.78125 -60.996094 23.695312 -60.605469 C 22.609375 -60.21875 21.601562 -59.535156 20.632812 -58.648438 C 19.640625 -57.699219 18.796875 -56.542969 18.035156 -55.203125 C 17.230469 -53.84375 16.667969 -52.316406 16.320312 -50.675781 C 15.898438 -48.71875 15.605469 -46.605469 15.554688 -44.324219 C 15.5 -42.046875 15.46875 -39.722656 15.457031 -37.351562 C 15.445312 -34.980469 15.414062 -32.65625 15.339844 -30.421875 C 15.265625 -28.1875 14.972656 -26.074219 14.464844 -24.191406 C 13.953125 -22.304688 13.183594 -20.632812 12.152344 -19.277344 C 11.078125 -17.90625 9.59375 -16.949219 7.699219 -16.40625 C 6.480469 -16.066406 5.453125 -16.144531 4.574219 -16.621094 C 3.695312 -17.097656 2.914062 -17.839844 2.34375 -18.84375 C 1.75 -19.777344 1.292969 -20.890625 0.976562 -22.175781 C 0.636719 -23.394531 0.476562 -24.585938 0.425781 -25.773438 C 0.398438 -26.914062 0.519531 -27.960938 0.773438 -28.847656 C 1.027344 -29.734375 1.40625 -30.347656 1.929688 -30.640625 C 0.367188 -30.804688 -1 -30.671875 -2.15625 -30.195312 C -3.359375 -29.699219 -4.34375 -28.96875 -5.132812 -28.058594 C -5.96875 -27.125 -6.609375 -26.003906 -7.011719 -24.71875 C -7.457031 -23.414062 -7.703125 -22.035156 -7.707031 -20.605469 C -7.753906 -19.152344 -7.625 -17.671875 -7.269531 -16.1875 C -6.960938 -14.675781 -6.425781 -13.273438 -5.710938 -11.953125 C -4.703125 -9.996094 -3.5 -8.457031 -2.152344 -7.316406 C -0.828125 -6.109375 0.664062 -5.257812 2.214844 -4.757812 C 3.761719 -4.257812 5.34375 -4.050781 6.980469 -4.199219 C 8.640625 -4.300781 10.242188 -4.761719 11.878906 -5.511719 Z M 11.878906 -5.511719 "/></g></g></g><g fill="#ff914d" fill-opacity="1"><g transform="translate(278.923385, 213.891134)"><g><path d="M 4.414062 -33.488281 C 4.972656 -33.472656 5.570312 -33.964844 6.117188 -34.933594 C 6.355469 -35.371094 6.597656 -35.921875 6.753906 -36.542969 C 6.90625 -37.164062 7.0625 -37.785156 7.128906 -38.476562 C 7.199219 -39.167969 7.242188 -39.792969 7.21875 -40.441406 C 7.148438 -41.070312 7.101562 -41.652344 6.960938 -42.195312 C 6.660156 -43.210938 6.207031 -43.71875 5.648438 -43.734375 C 5.046875 -43.734375 4.492188 -43.261719 3.945312 -42.292969 C 3.421875 -41.28125 3.089844 -40.085938 2.910156 -38.683594 L 2.890625 -38.726562 C 2.777344 -38.015625 2.753906 -37.347656 2.824219 -36.71875 C 2.847656 -36.070312 2.9375 -35.507812 3.082031 -35.078125 C 3.199219 -34.582031 3.386719 -34.171875 3.625 -33.894531 C 3.859375 -33.621094 4.101562 -33.457031 4.414062 -33.488281 Z M 0.578125 -0.539062 C 1.429688 -0.601562 2.359375 -0.972656 3.457031 -1.699219 C 4.554688 -2.421875 5.59375 -3.503906 6.648438 -4.925781 C 7.675781 -6.277344 8.671875 -7.945312 9.519531 -9.929688 C 10.386719 -11.867188 11.089844 -14.171875 11.578125 -16.703125 C 11.359375 -16.21875 11.074219 -15.648438 10.691406 -14.921875 C 10.261719 -14.175781 9.816406 -13.472656 9.300781 -12.796875 C 8.761719 -12.054688 8.226562 -11.425781 7.671875 -10.839844 C 7.070312 -10.234375 6.542969 -9.824219 6.066406 -9.664062 C 5.339844 -9.328125 4.804688 -9.414062 4.554688 -9.957031 C 4.324219 -10.457031 4.191406 -11.109375 4.242188 -11.957031 C 4.265625 -12.742188 4.359375 -13.496094 4.523438 -14.34375 C 4.636719 -15.167969 4.769531 -15.722656 4.824219 -16.078125 L 7.890625 -32.390625 L 1.488281 -29.449219 L -2.5 -9.632812 C -2.824219 -7.941406 -2.984375 -6.496094 -2.953125 -5.351562 C -2.902344 -4.167969 -2.753906 -3.246094 -2.441406 -2.5625 C -2.152344 -1.816406 -1.726562 -1.242188 -1.199219 -0.933594 C -0.671875 -0.625 -0.0507812 -0.472656 0.578125 -0.539062 Z M 0.578125 -0.539062 "/></g></g></g><g fill="#ff914d" fill-opacity="1"><g transform="translate(291.04565, 208.322304)"><g><path d="M 0.9375 -0.59375 C 1.96875 -0.738281 3.082031 -1.195312 4.226562 -2.050781 C 5.375 -2.910156 6.441406 -4.058594 7.472656 -5.523438 C 8.460938 -6.964844 9.277344 -8.660156 9.96875 -10.628906 C 10.660156 -12.597656 11.066406 -14.820312 11.191406 -17.1875 C 11.019531 -16.722656 10.847656 -16.257812 10.652344 -15.839844 C 10.460938 -15.421875 10.269531 -15.003906 10.054688 -14.628906 C 9.578125 -13.75 9.0625 -12.960938 8.5 -12.265625 C 7.941406 -11.566406 7.429688 -11.003906 6.878906 -10.53125 C 6.300781 -9.988281 5.753906 -9.628906 5.210938 -9.488281 C 4.691406 -9.304688 4.3125 -9.40625 4.054688 -9.730469 C 3.753906 -10.027344 3.566406 -10.4375 3.496094 -11.066406 C 3.449219 -11.648438 3.449219 -12.363281 3.519531 -13.167969 C 3.566406 -13.90625 3.660156 -14.660156 3.796875 -15.441406 C 3.910156 -16.152344 4.070312 -16.882812 4.203125 -17.550781 C 4.355469 -18.171875 4.460938 -18.660156 4.496094 -18.949219 L 6.449219 -30.023438 L 10.988281 -32.109375 L 11.703125 -34.03125 L 6.796875 -31.777344 L 7.59375 -36.269531 L 10.019531 -48.824219 C 9.433594 -48.664062 8.925781 -48.816406 8.535156 -49.1875 C 8.097656 -49.535156 7.6875 -49.953125 7.324219 -50.5 C 6.9375 -50.984375 6.550781 -51.464844 6.121094 -51.929688 C 5.6875 -52.390625 5.226562 -52.671875 4.648438 -52.738281 C 4.621094 -52.558594 4.613281 -52.335938 4.5625 -52.089844 C 4.460938 -51.828125 4.40625 -51.46875 4.347656 -51.113281 L 3.804688 -48.113281 C 3.648438 -47.492188 3.558594 -46.847656 3.472656 -46.199219 C 3.335938 -45.535156 3.203125 -44.867188 3.070312 -44.203125 C 2.910156 -43.46875 2.777344 -42.800781 2.664062 -42.089844 C 2.550781 -41.378906 2.394531 -40.644531 2.28125 -39.933594 C 1.632812 -36.554688 0.925781 -32.820312 0.167969 -28.730469 L -3.46875 -27.0625 L -4.179688 -25.140625 L -0.183594 -26.976562 L -2.230469 -15.75 L -2.816406 -12.953125 C -2.898438 -12.417969 -2.984375 -11.882812 -3.089844 -11.394531 C -3.195312 -10.90625 -3.28125 -10.375 -3.339844 -9.90625 C -3.511719 -8.835938 -3.589844 -7.8125 -3.578125 -6.828125 C -3.609375 -5.820312 -3.527344 -4.925781 -3.289062 -4.042969 C -2.976562 -2.648438 -2.425781 -1.691406 -1.683594 -1.152344 C -0.941406 -0.613281 -0.0742188 -0.40625 0.9375 -0.59375 Z M 0.9375 -0.59375 "/></g></g></g><g fill="#ff914d" fill-opacity="1"><g transform="translate(302.80466, 202.920349)"><g><path d="M 3.03125 -1.667969 C 4.246094 -1.894531 5.335938 -2.394531 6.34375 -3.191406 C 7.355469 -3.984375 8.304688 -4.914062 9.144531 -6.070312 C 9.964844 -7.164062 10.675781 -8.371094 11.34375 -9.667969 C 12.015625 -10.964844 12.59375 -12.332031 13.042969 -13.746094 C 13.46875 -15.097656 13.828125 -16.472656 14.140625 -17.828125 C 14.410156 -19.160156 14.628906 -20.359375 14.753906 -21.519531 C 13.710938 -18.289062 12.53125 -15.824219 11.3125 -14.164062 C 10.097656 -12.503906 8.902344 -11.515625 7.773438 -11.214844 C 6.621094 -10.851562 5.691406 -11.195312 4.878906 -12.25 C 4.082031 -13.261719 3.601562 -14.910156 3.453125 -17.152344 C 3.425781 -17.6875 3.398438 -18.226562 3.371094 -18.765625 C 3.363281 -19.257812 3.402344 -19.769531 3.441406 -20.28125 C 3.679688 -19.289062 4.105469 -18.71875 4.683594 -18.542969 C 5.210938 -18.34375 5.863281 -18.367188 6.542969 -18.679688 L 6.46875 -18.484375 C 7.78125 -18.976562 8.886719 -19.921875 9.714844 -21.238281 C 10.5625 -22.507812 11.078125 -23.898438 11.371094 -25.410156 C 11.480469 -26.011719 11.507812 -26.792969 11.496094 -27.777344 C 11.484375 -28.761719 11.355469 -29.636719 11.070312 -30.496094 C 10.808594 -31.308594 10.359375 -31.929688 9.8125 -32.394531 C 9.246094 -32.792969 8.464844 -32.820312 7.515625 -32.492188 C 5.949219 -31.828125 4.550781 -30.800781 3.390625 -29.496094 C 2.226562 -28.195312 1.195312 -26.730469 0.382812 -25.148438 C -0.453125 -23.496094 -1.113281 -21.820312 -1.640625 -20.09375 C -2.144531 -18.320312 -2.464844 -16.742188 -2.691406 -15.320312 C -3.027344 -13.292969 -3.179688 -11.355469 -3.105469 -9.519531 C -3.078125 -7.660156 -2.75 -6.105469 -2.121094 -4.855469 C -1.453125 -3.402344 -0.632812 -2.457031 0.246094 -1.980469 C 1.125 -1.507812 2.039062 -1.429688 3.03125 -1.667969 Z M 5.226562 -20.828125 C 4.636719 -20.554688 4.171875 -20.726562 3.878906 -21.25 C 3.535156 -21.753906 3.585938 -22.601562 3.941406 -23.867188 C 4.382812 -25.664062 5.007812 -27.050781 5.824219 -28.03125 C 6.613281 -28.945312 7.351562 -29.613281 7.992188 -30.015625 L 8.035156 -30.039062 C 9.035156 -30.496094 9.585938 -30.253906 9.710938 -29.265625 C 9.738281 -28.730469 9.675781 -28.148438 9.539062 -27.484375 C 9.40625 -26.816406 9.179688 -26.109375 8.9375 -25.445312 C 8.445312 -24.121094 7.828125 -23.066406 7.132812 -22.308594 C 6.414062 -21.480469 5.8125 -20.988281 5.226562 -20.828125 Z M 5.226562 -20.828125 "/></g></g></g><g fill="#ffde59" fill-opacity="1"><g transform="translate(248.317562, 227.217718)"><g><path d="M 11.878906 -5.511719 C 14.351562 -6.59375 16.300781 -8.09375 17.730469 -10.015625 C 19.113281 -11.914062 20.167969 -14.050781 20.828125 -16.441406 C 21.488281 -18.835938 21.816406 -21.351562 21.90625 -24.035156 C 21.992188 -26.714844 21.90625 -29.421875 21.75 -32.15625 C 21.566406 -34.824219 21.34375 -37.46875 21.113281 -40.003906 C 20.882812 -42.539062 20.738281 -44.894531 20.761719 -46.996094 C 20.789062 -49.09375 21.023438 -50.855469 21.433594 -52.363281 C 21.859375 -53.824219 22.65625 -54.847656 23.878906 -55.410156 C 24.5625 -55.726562 25.1875 -55.683594 25.734375 -55.328125 C 26.257812 -54.910156 26.664062 -54.378906 26.953125 -53.632812 C 27.195312 -52.863281 27.28125 -52.078125 27.160156 -51.144531 C 27.042969 -50.207031 26.722656 -49.347656 26.203125 -48.558594 C 27.175781 -48.839844 28.015625 -49.28125 28.710938 -49.929688 C 29.402344 -50.578125 30.007812 -51.296875 30.390625 -52.132812 C 30.796875 -52.925781 31.074219 -53.765625 31.191406 -54.699219 C 31.269531 -55.613281 31.207031 -56.46875 30.941406 -57.28125 C 30.679688 -58.09375 30.1875 -58.804688 29.539062 -59.496094 C 28.867188 -60.121094 27.988281 -60.597656 26.859375 -60.90625 C 25.835938 -61.09375 24.78125 -60.996094 23.695312 -60.605469 C 22.609375 -60.21875 21.601562 -59.535156 20.632812 -58.648438 C 19.640625 -57.699219 18.796875 -56.542969 18.035156 -55.203125 C 17.230469 -53.84375 16.667969 -52.316406 16.320312 -50.675781 C 15.898438 -48.71875 15.605469 -46.605469 15.554688 -44.324219 C 15.5 -42.046875 15.46875 -39.722656 15.457031 -37.351562 C 15.445312 -34.980469 15.414062 -32.65625 15.339844 -30.421875 C 15.265625 -28.1875 14.972656 -26.074219 14.464844 -24.191406 C 13.953125 -22.304688 13.183594 -20.632812 12.152344 -19.277344 C 11.078125 -17.90625 9.59375 -16.949219 7.699219 -16.40625 C 6.480469 -16.066406 5.453125 -16.144531 4.574219 -16.621094 C 3.695312 -17.097656 2.914062 -17.839844 2.34375 -18.84375 C 1.75 -19.777344 1.292969 -20.890625 0.976562 -22.175781 C 0.636719 -23.394531 0.476562 -24.585938 0.425781 -25.773438 C 0.398438 -26.914062 0.519531 -27.960938 0.773438 -28.847656 C 1.027344 -29.734375 1.40625 -30.347656 1.929688 -30.640625 C 0.367188 -30.804688 -1 -30.671875 -2.15625 -30.195312 C -3.359375 -29.699219 -4.34375 -28.96875 -5.132812 -28.058594 C -5.96875 -27.125 -6.609375 -26.003906 -7.011719 -24.71875 C -7.457031 -23.414062 -7.703125 -22.035156 -7.707031 -20.605469 C -7.753906 -19.152344 -7.625 -17.671875 -7.269531 -16.1875 C -6.960938 -14.675781 -6.425781 -13.273438 -5.710938 -11.953125 C -4.703125 -9.996094 -3.5 -8.457031 -2.152344 -7.316406 C -0.828125 -6.109375 0.664062 -5.257812 2.214844 -4.757812 C 3.761719 -4.257812 5.34375 -4.050781 6.980469 -4.199219 C 8.640625 -4.300781 10.242188 -4.761719 11.878906 -5.511719 Z M 11.878906 -5.511719 "/></g></g></g><g fill="#ffde59" fill-opacity="1"><g transform="translate(279.737693, 212.783669)"><g><path d="M 4.414062 -33.488281 C 4.972656 -33.472656 5.570312 -33.964844 6.117188 -34.933594 C 6.355469 -35.371094 6.597656 -35.921875 6.753906 -36.542969 C 6.90625 -37.164062 7.0625 -37.785156 7.128906 -38.476562 C 7.199219 -39.167969 7.242188 -39.792969 7.21875 -40.441406 C 7.148438 -41.070312 7.101562 -41.652344 6.960938 -42.195312 C 6.660156 -43.210938 6.207031 -43.71875 5.648438 -43.734375 C 5.046875 -43.734375 4.492188 -43.261719 3.945312 -42.292969 C 3.421875 -41.28125 3.089844 -40.085938 2.910156 -38.683594 L 2.890625 -38.726562 C 2.777344 -38.015625 2.753906 -37.347656 2.824219 -36.71875 C 2.847656 -36.070312 2.9375 -35.507812 3.082031 -35.078125 C 3.199219 -34.582031 3.386719 -34.171875 3.625 -33.894531 C 3.859375 -33.621094 4.101562 -33.457031 4.414062 -33.488281 Z M 0.578125 -0.539062 C 1.429688 -0.601562 2.359375 -0.972656 3.457031 -1.699219 C 4.554688 -2.421875 5.59375 -3.503906 6.648438 -4.925781 C 7.675781 -6.277344 8.671875 -7.945312 9.519531 -9.929688 C 10.386719 -11.867188 11.089844 -14.171875 11.578125 -16.703125 C 11.359375 -16.21875 11.074219 -15.648438 10.691406 -14.921875 C 10.261719 -14.175781 9.816406 -13.472656 9.300781 -12.796875 C 8.761719 -12.054688 8.226562 -11.425781 7.671875 -10.839844 C 7.070312 -10.234375 6.542969 -9.824219 6.066406 -9.664062 C 5.339844 -9.328125 4.804688 -9.414062 4.554688 -9.957031 C 4.324219 -10.457031 4.191406 -11.109375 4.242188 -11.957031 C 4.265625 -12.742188 4.359375 -13.496094 4.523438 -14.34375 C 4.636719 -15.167969 4.769531 -15.722656 4.824219 -16.078125 L 7.890625 -32.390625 L 1.488281 -29.449219 L -2.5 -9.632812 C -2.824219 -7.941406 -2.984375 -6.496094 -2.953125 -5.351562 C -2.902344 -4.167969 -2.753906 -3.246094 -2.441406 -2.5625 C -2.152344 -1.816406 -1.726562 -1.242188 -1.199219 -0.933594 C -0.671875 -0.625 -0.0507812 -0.472656 0.578125 -0.539062 Z M 0.578125 -0.539062 "/></g></g></g><g fill="#ffde59" fill-opacity="1"><g transform="translate(291.859957, 207.214839)"><g><path d="M 0.9375 -0.59375 C 1.96875 -0.738281 3.082031 -1.195312 4.226562 -2.050781 C 5.375 -2.910156 6.441406 -4.058594 7.472656 -5.523438 C 8.460938 -6.964844 9.277344 -8.660156 9.96875 -10.628906 C 10.660156 -12.597656 11.066406 -14.820312 11.191406 -17.1875 C 11.019531 -16.722656 10.847656 -16.257812 10.652344 -15.839844 C 10.460938 -15.421875 10.269531 -15.003906 10.054688 -14.628906 C 9.578125 -13.75 9.0625 -12.960938 8.5 -12.265625 C 7.941406 -11.566406 7.429688 -11.003906 6.878906 -10.53125 C 6.300781 -9.988281 5.753906 -9.628906 5.210938 -9.488281 C 4.691406 -9.304688 4.3125 -9.40625 4.054688 -9.730469 C 3.753906 -10.027344 3.566406 -10.4375 3.496094 -11.066406 C 3.449219 -11.648438 3.449219 -12.363281 3.519531 -13.167969 C 3.566406 -13.90625 3.660156 -14.660156 3.796875 -15.441406 C 3.910156 -16.152344 4.070312 -16.882812 4.203125 -17.550781 C 4.355469 -18.171875 4.460938 -18.660156 4.496094 -18.949219 L 6.449219 -30.023438 L 10.988281 -32.109375 L 11.703125 -34.03125 L 6.796875 -31.777344 L 7.59375 -36.269531 L 10.019531 -48.824219 C 9.433594 -48.664062 8.925781 -48.816406 8.535156 -49.1875 C 8.097656 -49.535156 7.6875 -49.953125 7.324219 -50.5 C 6.9375 -50.984375 6.550781 -51.464844 6.121094 -51.929688 C 5.6875 -52.390625 5.226562 -52.671875 4.648438 -52.738281 C 4.621094 -52.558594 4.613281 -52.335938 4.5625 -52.089844 C 4.460938 -51.828125 4.40625 -51.46875 4.347656 -51.113281 L 3.804688 -48.113281 C 3.648438 -47.492188 3.558594 -46.847656 3.472656 -46.199219 C 3.335938 -45.535156 3.203125 -44.867188 3.070312 -44.203125 C 2.910156 -43.46875 2.777344 -42.800781 2.664062 -42.089844 C 2.550781 -41.378906 2.394531 -40.644531 2.28125 -39.933594 C 1.632812 -36.554688 0.925781 -32.820312 0.167969 -28.730469 L -3.46875 -27.0625 L -4.179688 -25.140625 L -0.183594 -26.976562 L -2.230469 -15.75 L -2.816406 -12.953125 C -2.898438 -12.417969 -2.984375 -11.882812 -3.089844 -11.394531 C -3.195312 -10.90625 -3.28125 -10.375 -3.339844 -9.90625 C -3.511719 -8.835938 -3.589844 -7.8125 -3.578125 -6.828125 C -3.609375 -5.820312 -3.527344 -4.925781 -3.289062 -4.042969 C -2.976562 -2.648438 -2.425781 -1.691406 -1.683594 -1.152344 C -0.941406 -0.613281 -0.0742188 -0.40625 0.9375 -0.59375 Z M 0.9375 -0.59375 "/></g></g></g><g fill="#ffde59" fill-opacity="1"><g transform="translate(303.618968, 201.812884)"><g><path d="M 3.03125 -1.667969 C 4.246094 -1.894531 5.335938 -2.394531 6.34375 -3.191406 C 7.355469 -3.984375 8.304688 -4.914062 9.144531 -6.070312 C 9.964844 -7.164062 10.675781 -8.371094 11.34375 -9.667969 C 12.015625 -10.964844 12.59375 -12.332031 13.042969 -13.746094 C 13.46875 -15.097656 13.828125 -16.472656 14.140625 -17.828125 C 14.410156 -19.160156 14.628906 -20.359375 14.753906 -21.519531 C 13.710938 -18.289062 12.53125 -15.824219 11.3125 -14.164062 C 10.097656 -12.503906 8.902344 -11.515625 7.773438 -11.214844 C 6.621094 -10.851562 5.691406 -11.195312 4.878906 -12.25 C 4.082031 -13.261719 3.601562 -14.910156 3.453125 -17.152344 C 3.425781 -17.6875 3.398438 -18.226562 3.371094 -18.765625 C 3.363281 -19.257812 3.402344 -19.769531 3.441406 -20.28125 C 3.679688 -19.289062 4.105469 -18.71875 4.683594 -18.542969 C 5.210938 -18.34375 5.863281 -18.367188 6.542969 -18.679688 L 6.46875 -18.484375 C 7.78125 -18.976562 8.886719 -19.921875 9.714844 -21.238281 C 10.5625 -22.507812 11.078125 -23.898438 11.371094 -25.410156 C 11.480469 -26.011719 11.507812 -26.792969 11.496094 -27.777344 C 11.484375 -28.761719 11.355469 -29.636719 11.070312 -30.496094 C 10.808594 -31.308594 10.359375 -31.929688 9.8125 -32.394531 C 9.246094 -32.792969 8.464844 -32.820312 7.515625 -32.492188 C 5.949219 -31.828125 4.550781 -30.800781 3.390625 -29.496094 C 2.226562 -28.195312 1.195312 -26.730469 0.382812 -25.148438 C -0.453125 -23.496094 -1.113281 -21.820312 -1.640625 -20.09375 C -2.144531 -18.320312 -2.464844 -16.742188 -2.691406 -15.320312 C -3.027344 -13.292969 -3.179688 -11.355469 -3.105469 -9.519531 C -3.078125 -7.660156 -2.75 -6.105469 -2.121094 -4.855469 C -1.453125 -3.402344 -0.632812 -2.457031 0.246094 -1.980469 C 1.125 -1.507812 2.039062 -1.429688 3.03125 -1.667969 Z M 5.226562 -20.828125 C 4.636719 -20.554688 4.171875 -20.726562 3.878906 -21.25 C 3.535156 -21.753906 3.585938 -22.601562 3.941406 -23.867188 C 4.382812 -25.664062 5.007812 -27.050781 5.824219 -28.03125 C 6.613281 -28.945312 7.351562 -29.613281 7.992188 -30.015625 L 8.035156 -30.039062 C 9.035156 -30.496094 9.585938 -30.253906 9.710938 -29.265625 C 9.738281 -28.730469 9.675781 -28.148438 9.539062 -27.484375 C 9.40625 -26.816406 9.179688 -26.109375 8.9375 -25.445312 C 8.445312 -24.121094 7.828125 -23.066406 7.132812 -22.308594 C 6.414062 -21.480469 5.8125 -20.988281 5.226562 -20.828125 Z M 5.226562 -20.828125 "/></g></g></g></svg>